<svg xmlns="http://www.w3.org/2000/svg" width="600" height="400" viewBox="0 0 600 400">
  <rect width="600" height="400" fill="#1A1A2E"/>
  <rect x="150" y="30" width="300" height="290" rx="20" fill="#2A2A4E" stroke="#EF4444" stroke-width="3"/>
  <rect x="170" y="50" width="260" height="190" rx="10" fill="#0F0F2A" stroke="#FF6B35" stroke-width="2"/>
  <!-- Godzilla silhouette hint -->
  <path d="M220,220 L230,170 L240,190 L250,150 L260,185 L270,140 L280,180 L290,160 L300,130 L310,160 L320,180 L330,140 L340,185 L350,150 L360,190 L370,170 L380,220 Z" fill="#EF4444" opacity="0.7"/>
  <text x="300" y="120" text-anchor="middle" font-family="sans-serif" font-size="28" font-weight="bold" fill="#FF6B35">GODZILLA</text>
  <text x="300" y="155" text-anchor="middle" font-family="sans-serif" font-size="16" fill="#FFD700">¥∏È</text>
  <text x="300" y="200" text-anchor="middle" font-family="sans-serif" font-size="13" fill="#9CA3AF">FJG / Fuji</text>
  <circle cx="220" cy="290" r="14" fill="#EF4444"/><circle cx="265" cy="290" r="14" fill="#FF6B35"/>
  <circle cx="310" cy="290" r="14" fill="#FFD700"/><circle cx="355" cy="290" r="14" fill="#7B2FFF"/>
  <rect x="190" y="340" width="220" height="36" rx="18" fill="#EF4444"/>
  <text x="300" y="363" text-anchor="middle" font-family="sans-serif" font-size="13" font-weight="bold" fill="white">—¡Û≥ ﬁ¸±√»</text>
</svg>
